<svg width="24" height="24" viewBox="0 0 24 24" fill="none" xmlns="http://www.w3.org/2000/svg">
<rect width="24" height="24" fill="white"/>
<path d="M9.48365 12.9655V11.4055H6.15965V10.2175L9.74765 4.96151H10.9836V10.0255H11.7636V11.4055H10.9836V12.9655H9.48365ZM7.79165 10.0255H9.48365V7.45751L7.79165 10.0255ZM17.94 9.00551C17.94 9.48551 17.892 9.96952 17.796 10.4575C17.7 10.9455 17.54 11.3895 17.316 11.7895C17.092 12.1815 16.796 12.5055 16.428 12.7615C16.068 13.0095 15.62 13.1335 15.084 13.1335C14.548 13.1335 14.096 13.0095 13.728 12.7615C13.36 12.5055 13.064 12.1815 12.84 11.7895C12.616 11.3895 12.456 10.9455 12.36 10.4575C12.264 9.96952 12.216 9.48551 12.216 9.00551C12.216 8.52551 12.264 8.04151 12.36 7.55351C12.456 7.06551 12.616 6.62551 12.84 6.23351C13.064 5.83351 13.36 5.50952 13.728 5.26151C14.096 5.00551 14.548 4.87751 15.084 4.87751C15.62 4.87751 16.068 5.00551 16.428 5.26151C16.796 5.50952 17.092 5.83351 17.316 6.23351C17.54 6.62551 17.7 7.06551 17.796 7.55351C17.892 8.04151 17.94 8.52551 17.94 9.00551ZM16.38 8.99351C16.38 8.60951 16.356 8.25352 16.308 7.92551C16.26 7.58951 16.18 7.30151 16.068 7.06151C15.964 6.81352 15.828 6.61752 15.66 6.47352C15.5 6.32951 15.308 6.25751 15.084 6.25751C14.852 6.25751 14.652 6.32951 14.484 6.47352C14.324 6.61752 14.188 6.81352 14.076 7.06151C13.972 7.30151 13.896 7.58951 13.848 7.92551C13.8 8.25352 13.776 8.60951 13.776 8.99351C13.776 9.37751 13.8 9.73751 13.848 10.0735C13.904 10.4015 13.984 10.6935 14.088 10.9495C14.192 11.1975 14.324 11.3935 14.484 11.5375C14.652 11.6815 14.852 11.7535 15.084 11.7535C15.308 11.7535 15.5 11.6815 15.66 11.5375C15.828 11.3935 15.964 11.1975 16.068 10.9495C16.18 10.6935 16.26 10.4015 16.308 10.0735C16.356 9.73751 16.38 9.37751 16.38 8.99351ZM6.95223 19.9655V16.6265H7.42123L7.45623 16.8925C7.56356 16.8132 7.70123 16.7362 7.86923 16.6615C8.03723 16.5822 8.22156 16.5425 8.42223 16.5425C8.59023 16.5425 8.75123 16.5728 8.90523 16.6335C9.06389 16.6942 9.19689 16.8062 9.30423 16.9695C9.43956 16.8528 9.60056 16.7525 9.78723 16.6685C9.97856 16.5845 10.1886 16.5425 10.4172 16.5425C10.7439 16.5425 10.9912 16.6102 11.1592 16.7455C11.3272 16.8808 11.4346 17.0605 11.4812 17.2845C11.5326 17.5038 11.5582 17.7255 11.5582 17.9495V19.9655H11.0402V17.8795C11.0402 17.5995 10.9889 17.3825 10.8862 17.2285C10.7836 17.0698 10.5969 16.9905 10.3262 16.9905C10.1582 16.9905 9.99023 17.0325 9.82223 17.1165C9.65423 17.2005 9.52589 17.2822 9.43723 17.3615C9.47923 17.5062 9.50023 17.7022 9.50023 17.9495V19.9655H8.98923V17.8795C8.98923 17.6882 8.96356 17.5225 8.91223 17.3825C8.86089 17.2425 8.78156 17.1422 8.67423 17.0815C8.56689 17.0208 8.45023 16.9905 8.32423 16.9905C8.17023 16.9905 8.01623 17.0325 7.86223 17.1165C7.71289 17.1958 7.57989 17.2775 7.46323 17.3615V19.9655H6.95223ZM12.462 19.9655V16.6265H12.931L12.966 16.8925C13.0733 16.8132 13.211 16.7362 13.379 16.6615C13.547 16.5822 13.7313 16.5425 13.932 16.5425C14.1 16.5425 14.261 16.5728 14.415 16.6335C14.5737 16.6942 14.7067 16.8062 14.814 16.9695C14.9493 16.8528 15.1103 16.7525 15.297 16.6685C15.4883 16.5845 15.6983 16.5425 15.927 16.5425C16.2537 16.5425 16.501 16.6102 16.669 16.7455C16.837 16.8808 16.9443 17.0605 16.991 17.2845C17.0423 17.5038 17.068 17.7255 17.068 17.9495V19.9655H16.55V17.8795C16.55 17.5995 16.4987 17.3825 16.396 17.2285C16.2933 17.0698 16.1067 16.9905 15.836 16.9905C15.668 16.9905 15.5 17.0325 15.332 17.1165C15.164 17.2005 15.0357 17.2822 14.947 17.3615C14.989 17.5062 15.01 17.7022 15.01 17.9495V19.9655H14.499V17.8795C14.499 17.6882 14.4733 17.5225 14.422 17.3825C14.3707 17.2425 14.2913 17.1422 14.184 17.0815C14.0767 17.0208 13.96 16.9905 13.834 16.9905C13.68 16.9905 13.526 17.0325 13.372 17.1165C13.2227 17.1958 13.0897 17.2775 12.973 17.3615V19.9655H12.462Z" fill="#333333"/>
</svg>
