<svg width="24" height="24" viewBox="0 0 24 24" fill="none" xmlns="http://www.w3.org/2000/svg">
<rect width="24" height="24" fill="white"/>
<path d="M9.48365 12.9655V11.4055H6.15965V10.2175L9.74765 4.96151H10.9836V10.0255H11.7636V11.4055H10.9836V12.9655H9.48365ZM7.79165 10.0255H9.48365V7.45751L7.79165 10.0255ZM12.492 12.9655V12.0175C12.492 11.8575 12.504 11.6935 12.528 11.5255C12.552 11.3575 12.596 11.1895 12.66 11.0215C12.724 10.8535 12.816 10.6895 12.936 10.5295C13.064 10.3615 13.224 10.2055 13.416 10.0615L15.084 8.77752C15.252 8.64952 15.388 8.52952 15.492 8.41752C15.604 8.30552 15.692 8.19752 15.756 8.09351C15.82 7.98151 15.864 7.86951 15.888 7.75751C15.912 7.63751 15.924 7.50551 15.924 7.36152C15.924 7.02552 15.824 6.76552 15.624 6.58152C15.424 6.38951 15.144 6.29351 14.784 6.29351C14.56 6.29351 14.352 6.33351 14.16 6.41352C13.976 6.48552 13.808 6.57351 13.656 6.67751C13.512 6.77351 13.388 6.87351 13.284 6.97751C13.188 7.07351 13.116 7.14551 13.068 7.19351L12.336 6.04151C12.384 5.98551 12.476 5.89351 12.612 5.76551C12.756 5.63751 12.94 5.50951 13.164 5.38151C13.388 5.24551 13.652 5.12951 13.956 5.03351C14.268 4.92951 14.62 4.87751 15.012 4.87751C15.388 4.87751 15.728 4.93351 16.032 5.04551C16.344 5.15751 16.612 5.31751 16.836 5.52552C17.06 5.73351 17.232 5.98551 17.352 6.28151C17.472 6.56951 17.532 6.89351 17.532 7.25352C17.532 7.77351 17.432 8.21351 17.232 8.57351C17.04 8.92551 16.732 9.25751 16.308 9.56951L15.108 10.4575C14.924 10.5935 14.764 10.7135 14.628 10.8175C14.5 10.9135 14.396 11.0055 14.316 11.0935C14.236 11.1735 14.176 11.2535 14.136 11.3335C14.104 11.4055 14.088 11.4855 14.088 11.5735H17.628V12.9655H12.492ZM6.95223 19.9655V16.6265H7.42123L7.45623 16.8925C7.56356 16.8132 7.70123 16.7362 7.86923 16.6615C8.03723 16.5822 8.22156 16.5425 8.42223 16.5425C8.59023 16.5425 8.75123 16.5728 8.90523 16.6335C9.06389 16.6942 9.19689 16.8062 9.30423 16.9695C9.43956 16.8528 9.60056 16.7525 9.78723 16.6685C9.97856 16.5845 10.1886 16.5425 10.4172 16.5425C10.7439 16.5425 10.9912 16.6102 11.1592 16.7455C11.3272 16.8808 11.4346 17.0605 11.4812 17.2845C11.5326 17.5038 11.5582 17.7255 11.5582 17.9495V19.9655H11.0402V17.8795C11.0402 17.5995 10.9889 17.3825 10.8862 17.2285C10.7836 17.0698 10.5969 16.9905 10.3262 16.9905C10.1582 16.9905 9.99023 17.0325 9.82223 17.1165C9.65423 17.2005 9.52589 17.2822 9.43723 17.3615C9.47923 17.5062 9.50023 17.7022 9.50023 17.9495V19.9655H8.98923V17.8795C8.98923 17.6882 8.96356 17.5225 8.91223 17.3825C8.86089 17.2425 8.78156 17.1422 8.67423 17.0815C8.56689 17.0208 8.45023 16.9905 8.32423 16.9905C8.17023 16.9905 8.01623 17.0325 7.86223 17.1165C7.71289 17.1958 7.57989 17.2775 7.46323 17.3615V19.9655H6.95223ZM12.462 19.9655V16.6265H12.931L12.966 16.8925C13.0733 16.8132 13.211 16.7362 13.379 16.6615C13.547 16.5822 13.7313 16.5425 13.932 16.5425C14.1 16.5425 14.261 16.5728 14.415 16.6335C14.5737 16.6942 14.7067 16.8062 14.814 16.9695C14.9493 16.8528 15.1103 16.7525 15.297 16.6685C15.4883 16.5845 15.6983 16.5425 15.927 16.5425C16.2537 16.5425 16.501 16.6102 16.669 16.7455C16.837 16.8808 16.9443 17.0605 16.991 17.2845C17.0423 17.5038 17.068 17.7255 17.068 17.9495V19.9655H16.55V17.8795C16.55 17.5995 16.4987 17.3825 16.396 17.2285C16.2933 17.0698 16.1067 16.9905 15.836 16.9905C15.668 16.9905 15.5 17.0325 15.332 17.1165C15.164 17.2005 15.0357 17.2822 14.947 17.3615C14.989 17.5062 15.01 17.7022 15.01 17.9495V19.9655H14.499V17.8795C14.499 17.6882 14.4733 17.5225 14.422 17.3825C14.3707 17.2425 14.2913 17.1422 14.184 17.0815C14.0767 17.0208 13.96 16.9905 13.834 16.9905C13.68 16.9905 13.526 17.0325 13.372 17.1165C13.2227 17.1958 13.0897 17.2775 12.973 17.3615V19.9655H12.462Z" fill="#333333"/>
</svg>
