<svg width="24" height="24" viewBox="0 0 24 24" fill="none" xmlns="http://www.w3.org/2000/svg">
<rect width="24" height="24" fill="white"/>
<path d="M9.48365 12.9655V11.4055H6.15965V10.2175L9.74765 4.96151H10.9836V10.0255H11.7636V11.4055H10.9836V12.9655H9.48365ZM7.79165 10.0255H9.48365V7.45751L7.79165 10.0255ZM17.748 10.4935C17.748 10.8215 17.692 11.1455 17.58 11.4655C17.476 11.7775 17.316 12.0575 17.1 12.3055C16.884 12.5535 16.612 12.7535 16.284 12.9055C15.956 13.0575 15.576 13.1335 15.144 13.1335C14.808 13.1335 14.48 13.0735 14.16 12.9535C13.848 12.8335 13.568 12.6495 13.32 12.4015C13.08 12.1455 12.884 11.8255 12.732 11.4415C12.58 11.0495 12.504 10.5815 12.504 10.0375C12.504 9.66951 12.536 9.28951 12.6 8.89751C12.672 8.49751 12.78 8.10951 12.924 7.73351C13.076 7.35751 13.272 7.00151 13.512 6.66551C13.752 6.32951 14.044 6.03751 14.388 5.78951C14.74 5.53351 15.148 5.33351 15.612 5.18952C16.076 5.03751 16.608 4.96151 17.208 4.96151L17.556 6.16151H17.472C16.904 6.16151 16.436 6.22951 16.068 6.36551C15.708 6.49351 15.412 6.65751 15.18 6.85752C14.956 7.04952 14.784 7.25751 14.664 7.48151C14.544 7.70551 14.452 7.90951 14.388 8.09351C14.54 7.99751 14.704 7.92151 14.88 7.86551C15.064 7.80951 15.268 7.78152 15.492 7.78152C15.836 7.78152 16.148 7.84951 16.428 7.98551C16.708 8.11351 16.944 8.29751 17.136 8.53751C17.336 8.77751 17.488 9.06551 17.592 9.40151C17.696 9.72951 17.748 10.0935 17.748 10.4935ZM16.176 10.5055C16.176 10.0735 16.076 9.73752 15.876 9.49752C15.684 9.24951 15.432 9.12551 15.12 9.12551C14.936 9.12551 14.756 9.15751 14.58 9.22152C14.412 9.27752 14.276 9.33751 14.172 9.40151C14.156 9.44951 14.14 9.54151 14.124 9.67751C14.108 9.81352 14.1 9.98152 14.1 10.1815C14.1 10.4775 14.128 10.7255 14.184 10.9255C14.248 11.1255 14.328 11.2895 14.424 11.4175C14.528 11.5375 14.644 11.6255 14.772 11.6815C14.9 11.7295 15.032 11.7535 15.168 11.7535C15.472 11.7535 15.716 11.6415 15.9 11.4175C16.084 11.1935 16.176 10.8895 16.176 10.5055ZM6.95223 19.9655V16.6265H7.42123L7.45623 16.8925C7.56356 16.8132 7.70123 16.7362 7.86923 16.6615C8.03723 16.5822 8.22156 16.5425 8.42223 16.5425C8.59023 16.5425 8.75123 16.5728 8.90523 16.6335C9.06389 16.6942 9.19689 16.8062 9.30423 16.9695C9.43956 16.8528 9.60056 16.7525 9.78723 16.6685C9.97856 16.5845 10.1886 16.5425 10.4172 16.5425C10.7439 16.5425 10.9912 16.6102 11.1592 16.7455C11.3272 16.8808 11.4346 17.0605 11.4812 17.2845C11.5326 17.5038 11.5582 17.7255 11.5582 17.9495V19.9655H11.0402V17.8795C11.0402 17.5995 10.9889 17.3825 10.8862 17.2285C10.7836 17.0698 10.5969 16.9905 10.3262 16.9905C10.1582 16.9905 9.99023 17.0325 9.82223 17.1165C9.65423 17.2005 9.52589 17.2822 9.43723 17.3615C9.47923 17.5062 9.50023 17.7022 9.50023 17.9495V19.9655H8.98923V17.8795C8.98923 17.6882 8.96356 17.5225 8.91223 17.3825C8.86089 17.2425 8.78156 17.1422 8.67423 17.0815C8.56689 17.0208 8.45023 16.9905 8.32423 16.9905C8.17023 16.9905 8.01623 17.0325 7.86223 17.1165C7.71289 17.1958 7.57989 17.2775 7.46323 17.3615V19.9655H6.95223ZM12.462 19.9655V16.6265H12.931L12.966 16.8925C13.0733 16.8132 13.211 16.7362 13.379 16.6615C13.547 16.5822 13.7313 16.5425 13.932 16.5425C14.1 16.5425 14.261 16.5728 14.415 16.6335C14.5737 16.6942 14.7067 16.8062 14.814 16.9695C14.9493 16.8528 15.1103 16.7525 15.297 16.6685C15.4883 16.5845 15.6983 16.5425 15.927 16.5425C16.2537 16.5425 16.501 16.6102 16.669 16.7455C16.837 16.8808 16.9443 17.0605 16.991 17.2845C17.0423 17.5038 17.068 17.7255 17.068 17.9495V19.9655H16.55V17.8795C16.55 17.5995 16.4987 17.3825 16.396 17.2285C16.2933 17.0698 16.1067 16.9905 15.836 16.9905C15.668 16.9905 15.5 17.0325 15.332 17.1165C15.164 17.2005 15.0357 17.2822 14.947 17.3615C14.989 17.5062 15.01 17.7022 15.01 17.9495V19.9655H14.499V17.8795C14.499 17.6882 14.4733 17.5225 14.422 17.3825C14.3707 17.2425 14.2913 17.1422 14.184 17.0815C14.0767 17.0208 13.96 16.9905 13.834 16.9905C13.68 16.9905 13.526 17.0325 13.372 17.1165C13.2227 17.1958 13.0897 17.2775 12.973 17.3615V19.9655H12.462Z" fill="#333333"/>
</svg>
