<svg xmlns="http://www.w3.org/2000/svg" width="252.106" height="36.605" viewBox="0 0 66.703 9.685" fill-rule="evenodd" xmlns:v="https://vecta.io/nano"><path d="M49.404 9.069a.49.49 0 0 1-.492.492H35.146a.49.49 0 0 1-.492-.492V.833a.49.49 0 0 1 .492-.492h13.767a.49.49 0 0 1 .492.492v8.235" stroke="#000" fill="#fff" stroke-width=".053"/><path d="M39.622 5.533c1.116-.478 2.682-.912 4.757-.478l.021-.526c-2.188-.239-3.758.458-4.778.952v.052" fill="#faa929"/><g fill="#045ea0"><path d="M37.607 5.92h1.051v.317h-.654L38 6.53h.651v.304h-.654l.002.293h.644v.317h-1.038V5.92m1.318-.128h.382l.002 1.65h-.383l-.001-1.65m1.418.958c0-.114-.055-.218-.182-.218-.121 0-.214.108-.238.218zm.281.568c-.129.11-.327.165-.503.165-.402 0-.586-.286-.586-.57 0-.335.252-.618.596-.618.422 0 .555.299.555.68h-.768c0 .086.055.231.266.231.134 0 .209-.04.313-.11z"/><path d="M41.847 7.368c-.106.066-.28.114-.407.114-.353 0-.606-.202-.606-.568 0-.374.25-.621.629-.621.133 0 .29.042.376.097l-.123.251c-.056-.024-.119-.044-.18-.044-.192 0-.319.115-.319.297a.28.28 0 0 0 .286.284c.073 0 .145-.033.207-.064l.136.253"/><path d="M41.988 6.334h.173l-.001-.376h.37l-.009.376h.314l-.006.277h-.315l-.011.411c0 .097.025.143.111.143.053 0 .096-.026.14-.053l.083.26c-.112.068-.248.11-.377.11-.31 0-.326-.196-.326-.451l.011-.42h-.165l.008-.277"/><path d="M43.031 6.334h.383v.156h.005c.056-.095.132-.187.281-.187a.57.57 0 0 1 .125.013l-.051.378a.44.44 0 0 0-.135-.022c-.128 0-.227.108-.227.13l-.007.64h-.382l.008-1.109m1.488.859c.182 0 .236-.158.236-.304s-.054-.304-.236-.304-.239.159-.239.304.055.304.239.304zm0-.898c.408 0 .62.26.62.594s-.212.594-.62.594-.621-.26-.621-.594.21-.594.621-.594zm.828.04h.383v.121a.54.54 0 0 1 .359-.161c.235 0 .362.13.362.434l-.004.715h-.383l.005-.658c0-.09-.025-.161-.139-.161-.062 0-.149.053-.2.101l-.002.718h-.39l.009-1.109m-4.591-2.285l.483-1.595h.432l-.483 1.595h-.432"/><path d="M40.564 2.455l-.388.676c-.099.177-.156.267-.185.379h-.006c.007-.142-.013-.316-.015-.414l-.042-.64h-.727l-.007.043a.3.3 0 0 1 .328.285l.141 1.266h.447l.904-1.594h-.45m3.306.653l-.001-.375h-.006c-.026.079-.139.317-.188.434l-.161.349h.379zm.049.941l-.012-.237h-.539l-.111.237h-.468l.849-1.592h.575l.143 1.592z"/><path d="M42.125 4.095a1.21 1.21 0 0 1-.651-.183l.206-.314c.129.073.23.156.464.156.076 0 .148-.019.189-.091.06-.104-.013-.159-.182-.255l-.083-.054c-.249-.171-.357-.333-.24-.616.075-.181.274-.318.601-.318a.97.97 0 0 1 .562.193l-.236.277c-.121-.097-.221-.147-.335-.147-.091 0-.16.035-.183.082-.046.089.014.15.146.231l.099.063c.303.191.375.392.3.58-.132.323-.388.395-.655.395"/></g><g fill="none"><g transform="matrix(.264583 0 0 .264583 17.588449 .308801)"><path d="M55.746 32.984a1.86 1.86 0 0 1-1.858 1.858H1.857A1.86 1.86 0 0 1 0 32.984V1.859A1.86 1.86 0 0 1 1.857 0h52.031a1.86 1.86 0 0 1 1.858 1.859v31.125" stroke="#000" stroke-width=".2" fill="#fff"/><g fill-rule="nonzero"><path d="M18.457 28.094v-1.538a.91.91 0 0 0-.263-.705.92.92 0 0 0-.705-.269c-.347-.022-.678.144-.865.436-.171-.283-.483-.45-.814-.436-.288-.014-.562.124-.721.364v-.302h-.536v2.45h.541v-1.358a.57.57 0 0 1 .147-.467c.117-.126.284-.193.456-.184.355 0 .536.231.536.646v1.363h.541v-1.358c-.022-.169.033-.34.149-.465a.58.58 0 0 1 .454-.186c.366 0 .541.231.541.646v1.363zm8.003-2.45h-.875v-.743h-.541v.743h-.5v.487h.5v1.117c0 .569.221.907.855.907a1.26 1.26 0 0 0 .669-.19l-.154-.456a.99.99 0 0 1-.474.138c-.268 0-.355-.164-.355-.41v-1.107h.875zm4.568-.062c-.266-.008-.515.13-.649.359v-.297h-.53v2.45h.536V26.72c0-.405.175-.63.525-.63.115-.002.228.019.335.062l.165-.502a1.15 1.15 0 0 0-.381-.067zm-6.906.256a1.85 1.85 0 0 0-1.004-.256c-.623 0-1.025.297-1.025.784 0 .4.299.646.85.723l.252.036c.294.041.433.118.433.256 0 .19-.196.297-.561.297-.294.008-.583-.082-.819-.256l-.252.415a1.78 1.78 0 0 0 1.066.318c.711 0 1.123-.333 1.123-.8 0-.431-.324-.656-.86-.733l-.252-.036c-.232-.031-.417-.077-.417-.241 0-.179.175-.287.469-.287.27.004.534.076.767.21zm14.347-.256c-.266-.008-.515.13-.649.359v-.297h-.53v2.45h.536V26.72c0-.405.175-.63.525-.63.115-.002.228.019.335.062l.165-.502a1.15 1.15 0 0 0-.381-.067zm-6.901 1.286c-.014.349.12.688.37.933s.593.373.943.354c.322.016.638-.088.886-.292l-.257-.431c-.185.14-.411.218-.644.22-.417-.025-.742-.369-.742-.784s.325-.759.742-.784c.233.003.459.08.644.22l.257-.431c-.248-.204-.564-.308-.886-.292-.35-.02-.693.109-.943.354s-.385.584-.37.933zm5.016 0v-1.225h-.536v.297c-.186-.238-.475-.372-.778-.359a1.29 1.29 0 0 0-1.231 1.286 1.29 1.29 0 0 0 1.231 1.286c.302.013.592-.121.778-.359v.297h.536zm-1.993 0c.023-.403.366-.714.772-.699s.725.35.718.754-.337.728-.743.729a.74.74 0 0 1-.546-.229c-.142-.149-.215-.35-.201-.555zm-6.463-1.286a1.29 1.29 0 0 0-1.226 1.304 1.29 1.29 0 0 0 1.262 1.269 1.5 1.5 0 0 0 1.009-.343l-.263-.395c-.203.162-.455.252-.716.256-.368.031-.694-.235-.736-.6h1.828l.01-.205c-.005-.764-.479-1.286-1.169-1.286zm-.01.477a.61.61 0 0 1 .623.595h-1.277c.02-.342.31-.606.654-.595zm13.436.81V24.66h-.536v1.281c-.185-.238-.475-.372-.778-.359a1.29 1.29 0 0 0-1.231 1.286 1.29 1.29 0 0 0 1.231 1.286c.302.013.592-.121.778-.359v.297h.536zm.893.87c.033 0 .066.006.097.019s.056.03.079.052.041.049.053.078c.026.06.026.129 0 .189-.013.029-.031.055-.053.077s-.05.04-.079.052-.064.02-.097.019a.25.25 0 0 1-.231-.149.24.24 0 0 1 0-.189c.013-.029.031-.055.053-.078s.05-.04.079-.052.065-.019.099-.019zm0 .433c.025 0 .051-.005.074-.015s.043-.023.06-.041a.19.19 0 0 0-.06-.309c-.023-.01-.048-.015-.074-.015s-.051.005-.075.015-.043.023-.061.04a.19.19 0 0 0 0 .269c.017.017.038.031.061.041a.19.19 0 0 0 .075.015zm.014-.304c.024-.002.048.005.068.019s.025.032.024.053-.006.034-.019.046a.09.09 0 0 1-.054.022l.074.085h-.058l-.069-.085h-.022v.085h-.049v-.226zm-.056.042v.06h.056c.011.001.021-.002.031-.008s.012-.014.011-.023-.004-.017-.011-.022-.02-.008-.031-.007zm-2.844-1.042c.023-.403.366-.714.772-.699s.724.35.718.754-.337.728-.743.729a.74.74 0 0 1-.546-.229c-.142-.149-.215-.35-.201-.555zm-18.086 0v-1.225h-.536v.297c-.186-.238-.475-.372-.778-.359a1.29 1.29 0 0 0-1.231 1.286 1.29 1.29 0 0 0 1.231 1.286c.302.013.592-.121.778-.359v.297h.536zm-1.993 0c.023-.403.366-.714.772-.699s.724.35.718.754-.337.728-.743.729a.74.74 0 0 1-.546-.229c-.142-.149-.215-.35-.201-.555z" fill="#231f20"/><path fill="#ff5f00" d="M23.944 6.973h8.112v14.509h-8.112z"/><path d="M24.459 14.227c-.003-2.831 1.303-5.506 3.541-7.254-3.801-2.974-9.26-2.541-12.54.994s-3.28 8.985 0 12.52 8.739 3.968 12.54.994c-2.238-1.748-3.544-4.423-3.541-7.254z" fill="#eb001b"/><path d="M43 14.227c0 3.533-2.026 6.755-5.219 8.299s-6.99 1.138-9.781-1.045c2.236-1.75 3.541-4.424 3.541-7.254S30.236 8.723 28 6.973c2.791-2.183 6.589-2.589 9.781-1.045S43 10.695 43 14.227zm-.824 6.394v-.858h.159v-.175h-.406v.175h.159v.858zm.788 0v-1.034h-.124l-.143.712-.143-.712h-.124v1.034h.088v-.78l.134.673h.091l.134-.674v.782z" fill="#f79e1b"/></g></g><g transform="matrix(.264583 0 0 .264583 51.711426 .285487)"><path d="M55.747 32.984a1.86 1.86 0 0 1-1.858 1.858H1.858A1.86 1.86 0 0 1 0 32.984V1.859A1.86 1.86 0 0 1 1.858 0h52.031a1.86 1.86 0 0 1 1.858 1.859v31.125" stroke="#000" stroke-width=".2" fill="#fff"/><g fill-rule="nonzero"><path d="M22.045 27.883v-1.522c.018-.259-.077-.513-.262-.698a.92.92 0 0 0-.703-.266c-.345-.022-.675.143-.862.431-.17-.28-.481-.445-.81-.431-.287-.014-.56.123-.718.36v-.299h-.533v2.424h.539v-1.344c-.024-.168.03-.337.146-.462s.283-.191.454-.182c.354 0 .533.228.533.639v1.349h.539v-1.344a.57.57 0 0 1 .148-.46.58.58 0 0 1 .452-.184c.364 0 .539.228.539.639v1.349zm3.006-1.212v-1.212h-.533v.294c-.185-.235-.473-.368-.774-.355a1.28 1.28 0 0 0-1.226 1.273 1.28 1.28 0 0 0 1.226 1.273c.301.013.59-.12.774-.355v.294h.533zm-1.985 0a.74.74 0 0 1 .769-.692c.404.015.722.346.715.746a.74.74 0 0 1-.74.722.74.74 0 0 1-.544-.227c-.141-.147-.214-.346-.2-.549zm13.398-1.276c.18-.002.359.031.526.098.156.062.298.153.419.268a1.23 1.23 0 0 1 .276.404c.133.325.133.688 0 1.013-.064.152-.158.289-.276.404s-.263.207-.419.268a1.47 1.47 0 0 1-1.052 0 1.27 1.27 0 0 1-.417-.268 1.24 1.24 0 0 1-.275-.404c-.133-.325-.133-.688 0-1.013a1.24 1.24 0 0 1 .275-.404 1.27 1.27 0 0 1 .417-.268c.167-.066.346-.099.526-.098zm0 .499c-.104-.001-.208.018-.305.057a.72.72 0 0 0-.243.159.74.74 0 0 0-.161.246c-.079.203-.079.427 0 .63a.74.74 0 0 0 .161.246.72.72 0 0 0 .243.159c.196.076.413.076.609 0 .091-.036.175-.091.244-.159s.126-.154.163-.246c.079-.203.079-.427 0-.63-.037-.092-.092-.175-.163-.246s-.153-.123-.244-.159c-.097-.039-.2-.058-.305-.057zm-8.511.777c-.005-.756-.477-1.273-1.164-1.273a1.28 1.28 0 0 0-1.221 1.29c.01.685.565 1.239 1.257 1.256a1.5 1.5 0 0 0 1.005-.34l-.262-.391c-.203.161-.453.25-.713.254a.68.68 0 0 1-.733-.593h1.821l.01-.203zm-1.826-.213a.63.63 0 0 1 .651-.588c.335-.006.613.257.621.588zm4.072-.38c-.233-.132-.496-.204-.764-.208-.292 0-.467.107-.467.284 0 .162.185.208.415.238l.251.036c.533.076.857.299.857.725 0 .462-.41.791-1.118.791-.379.01-.751-.1-1.062-.315l.251-.411c.235.173.523.262.816.254.364 0 .559-.106.559-.294 0-.137-.139-.213-.431-.254l-.251-.035c-.549-.076-.846-.32-.846-.715 0-.482.4-.776 1.021-.776a1.85 1.85 0 0 1 1 .254zm2.563-.137h-.872v1.096c0 .243.087.406.354.406.166-.006.329-.053.472-.137l.154.451c-.2.123-.431.188-.667.188-.631 0-.851-.335-.851-.898v-1.106h-.498v-.482h.498v-.735h.539v.735h.872zm1.846-.543a1.15 1.15 0 0 1 .38.066l-.164.497a.88.88 0 0 0-.333-.061c-.349 0-.523.223-.523.624v1.359h-.533v-2.424h.528v.294c.133-.227.381-.363.646-.355zm3.693 2.132c.033 0 .066.006.097.019a.25.25 0 0 1 .079.052c.023.022.041.048.053.077.026.06.026.127 0 .187-.013.029-.031.055-.053.077s-.05.04-.079.052-.063.019-.097.019c-.1.001-.191-.057-.231-.148-.026-.06-.026-.127 0-.187.013-.029.03-.055.053-.077s.05-.04.079-.052.065-.019.098-.019zm0 .429c.025 0 .05-.005.074-.015s.043-.023.06-.04c.045-.044.064-.107.052-.169s-.054-.113-.112-.137c-.023-.01-.048-.015-.074-.015s-.051.005-.075.015-.043.023-.061.04c-.074.074-.074.192 0 .266.036.035.085.055.136.055zm.014-.301c.024-.002.048.005.067.019s.024.032.024.052-.006.034-.019.046a.09.09 0 0 1-.054.022l.074.085h-.058l-.069-.084h-.022v.084h-.048v-.224zm-.056.042v.06h.056c.011.001.021-.002.031-.007s.012-.014.011-.023-.004-.017-.011-.022-.02-.008-.031-.007z" fill="#000"/><path fill="#7375cf" d="M23.914 6.955h8.09v14.376h-8.09z"/><path d="M24.428 14.143a9.09 9.09 0 0 1 3.531-7.188c-3.791-2.946-9.234-2.518-12.505.985a9.07 9.07 0 0 0 0 12.406c3.271 3.503 8.715 3.932 12.505.985a9.09 9.09 0 0 1-3.531-7.188z" fill="#eb001b"/><path d="M42.124 20.604v-.954h.177v-.194h-.451v.194h.177v.954zm.876 0v-1.151h-.138l-.159.791-.159-.791h-.138v1.151h.098v-.868l.149.748h.101l.149-.75v.87zm-.083-6.461c0 3.5-2.021 6.694-5.204 8.224a9.33 9.33 0 0 1-9.754-1.035c2.23-1.734 3.531-4.383 3.531-7.188s-1.302-5.455-3.531-7.188a9.33 9.33 0 0 1 9.754-1.035c3.184 1.53 5.204 4.723 5.204 8.224z" fill="#00a2e5"/></g></g></g><path d="M14.992 9.016a.49.49 0 0 1-.492.492H.734a.49.49 0 0 1-.492-.492V.781A.49.49 0 0 1 .734.289H14.5a.49.49 0 0 1 .492.492v8.235" stroke="#000" fill="#fff" stroke-width=".053"/><path d="M6.964 6.283h-.72l.45-2.767h.72l-.45 2.767M5.637 3.515L4.95 5.419l-.081-.41h0l-.242-1.244s-.029-.249-.342-.249H3.149l-.013.047a2.69 2.69 0 0 0 .754.316l.626 2.404h.751l1.147-2.767h-.776m4.874 1.788l.378-1.036.213 1.036zm.793.979h.661l-.577-2.767h-.579c-.268 0-.333.206-.333.206L9.403 6.283h.751l.15-.411h.916zM9.459 4.181l.103-.594s-.317-.121-.648-.121c-.358 0-1.207.156-1.207.916 0 .715.997.724.997 1.099s-.894.308-1.189.072l-.107.621s.322.157.813.157 1.234-.255 1.234-.947c0-.72-1.005-.787-1.005-1.099s.702-.273 1.01-.103" fill="#3957a7"/><path d="M4.869 5.009l-.242-1.244s-.029-.249-.342-.249H3.149l-.013.047a2.79 2.79 0 0 0 1.069.537 2.16 2.16 0 0 1 .664.91" fill="#f9a533"/></svg>