<svg width="24" height="24" viewBox="0 0 24 24" fill="none" xmlns="http://www.w3.org/2000/svg">
<rect width="24" height="24" fill="white"/>
<path d="M6.16348 13V6.904L4.73548 7.816L4.02748 6.652L6.53548 5.056H7.72348V13H6.16348ZM8.91583 13V12.052C8.91583 11.892 8.92783 11.728 8.95183 11.56C8.97583 11.392 9.01983 11.224 9.08383 11.056C9.14783 10.888 9.23983 10.724 9.35983 10.564C9.48783 10.396 9.64783 10.24 9.83983 10.096L11.5078 8.812C11.6758 8.684 11.8118 8.564 11.9158 8.452C12.0278 8.34 12.1158 8.232 12.1798 8.128C12.2438 8.016 12.2878 7.904 12.3118 7.792C12.3358 7.672 12.3478 7.54 12.3478 7.396C12.3478 7.06 12.2478 6.8 12.0478 6.616C11.8478 6.424 11.5678 6.328 11.2078 6.328C10.9838 6.328 10.7758 6.368 10.5838 6.448C10.3998 6.52 10.2318 6.608 10.0798 6.712C9.93583 6.808 9.81183 6.908 9.70783 7.012C9.61183 7.108 9.53983 7.18 9.49183 7.228L8.75983 6.076C8.80783 6.02 8.89983 5.928 9.03583 5.8C9.17983 5.672 9.36383 5.544 9.58783 5.416C9.81183 5.28 10.0758 5.164 10.3798 5.068C10.6918 4.964 11.0438 4.912 11.4358 4.912C11.8118 4.912 12.1518 4.968 12.4558 5.08C12.7678 5.192 13.0358 5.352 13.2598 5.56C13.4838 5.768 13.6558 6.02 13.7758 6.316C13.8958 6.604 13.9558 6.928 13.9558 7.288C13.9558 7.808 13.8558 8.248 13.6558 8.608C13.4638 8.96 13.1558 9.292 12.7318 9.604L11.5318 10.492C11.3478 10.628 11.1878 10.748 11.0518 10.852C10.9238 10.948 10.8198 11.04 10.7398 11.128C10.6598 11.208 10.5998 11.288 10.5598 11.368C10.5278 11.44 10.5118 11.52 10.5118 11.608H14.0518V13H8.91583ZM20.2642 10.744C20.2642 11.048 20.2042 11.344 20.0842 11.632C19.9722 11.92 19.8042 12.18 19.5802 12.412C19.3642 12.636 19.0922 12.82 18.7642 12.964C18.4442 13.1 18.0762 13.168 17.6602 13.168C17.2442 13.168 16.8722 13.1 16.5442 12.964C16.2242 12.828 15.9522 12.648 15.7282 12.424C15.5042 12.192 15.3322 11.932 15.2122 11.644C15.1002 11.356 15.0442 11.06 15.0442 10.756C15.0442 10.588 15.0642 10.416 15.1042 10.24C15.1522 10.064 15.2162 9.892 15.2962 9.724C15.3842 9.556 15.4882 9.4 15.6082 9.256C15.7282 9.112 15.8682 8.992 16.0282 8.896C15.7242 8.664 15.5042 8.396 15.3682 8.092C15.2322 7.78 15.1642 7.48 15.1642 7.192C15.1642 6.896 15.2202 6.612 15.3322 6.34C15.4522 6.068 15.6202 5.828 15.8362 5.62C16.0522 5.404 16.3122 5.232 16.6162 5.104C16.9282 4.976 17.2762 4.912 17.6602 4.912C18.0362 4.912 18.3762 4.976 18.6802 5.104C18.9922 5.224 19.2562 5.388 19.4722 5.596C19.6882 5.804 19.8562 6.044 19.9762 6.316C20.0962 6.588 20.1562 6.872 20.1562 7.168C20.1562 7.456 20.0842 7.764 19.9402 8.092C19.7962 8.412 19.5802 8.676 19.2922 8.884C19.6202 9.084 19.8642 9.36 20.0242 9.712C20.1842 10.064 20.2642 10.408 20.2642 10.744ZM18.6322 7.216C18.6322 7.096 18.6082 6.976 18.5602 6.856C18.5202 6.736 18.4562 6.628 18.3682 6.532C18.2882 6.436 18.1882 6.36 18.0682 6.304C17.9482 6.24 17.8122 6.208 17.6602 6.208C17.5082 6.208 17.3722 6.24 17.2522 6.304C17.1322 6.36 17.0282 6.436 16.9402 6.532C16.8602 6.628 16.7962 6.74 16.7482 6.868C16.7082 6.988 16.6882 7.108 16.6882 7.228C16.6882 7.356 16.7082 7.484 16.7482 7.612C16.7882 7.74 16.8482 7.856 16.9282 7.96C17.0162 8.064 17.1202 8.148 17.2402 8.212C17.3602 8.276 17.5002 8.308 17.6602 8.308C17.8122 8.308 17.9482 8.276 18.0682 8.212C18.1882 8.14 18.2882 8.052 18.3682 7.948C18.4562 7.844 18.5202 7.728 18.5602 7.6C18.6082 7.472 18.6322 7.344 18.6322 7.216ZM18.7642 10.684C18.7642 10.38 18.6642 10.116 18.4642 9.892C18.2722 9.668 18.0002 9.556 17.6482 9.556C17.3042 9.556 17.0362 9.668 16.8442 9.892C16.6522 10.108 16.5562 10.364 16.5562 10.66C16.5562 10.812 16.5802 10.956 16.6282 11.092C16.6762 11.228 16.7482 11.352 16.8442 11.464C16.9402 11.568 17.0562 11.652 17.1922 11.716C17.3282 11.78 17.4842 11.812 17.6602 11.812C18.0202 11.812 18.2922 11.7 18.4762 11.476C18.6682 11.252 18.7642 10.988 18.7642 10.684ZM10.449 20.091C10.1876 20.091 9.94265 20.0467 9.71398 19.958C9.48531 19.8647 9.28465 19.7223 9.11198 19.531C8.94398 19.335 8.80865 19.0853 8.70598 18.782C8.60798 18.4787 8.55898 18.1123 8.55898 17.683C8.55898 17.0623 8.66165 16.5607 8.86698 16.178C9.07231 15.7907 9.31031 15.5387 9.58098 15.422C9.85631 15.3007 10.1106 15.24 10.344 15.24C10.5446 15.24 10.7196 15.261 10.869 15.303C11.0183 15.345 11.1513 15.4033 11.268 15.478C11.3846 15.5527 11.485 15.6413 11.569 15.744C11.6576 15.8467 11.737 15.9587 11.807 16.08L11.415 16.409C11.2796 16.2037 11.135 16.0403 10.981 15.919C10.827 15.7977 10.631 15.737 10.393 15.737C10.113 15.737 9.87031 15.828 9.66498 16.01C9.45965 16.1873 9.31731 16.4277 9.23798 16.731C9.15865 17.0297 9.11898 17.3493 9.11898 17.69C9.11898 17.9933 9.15398 18.264 9.22398 18.502C9.29865 18.74 9.39665 18.9407 9.51798 19.104C9.63931 19.2673 9.77931 19.391 9.93798 19.475C10.1013 19.559 10.274 19.601 10.456 19.601C10.6566 19.601 10.8293 19.5893 10.974 19.566C11.1233 19.538 11.2446 19.5077 11.338 19.475V18.257H10.603V17.767H11.87V19.825C11.7393 19.8857 11.5456 19.944 11.289 20C11.037 20.0607 10.757 20.091 10.449 20.091ZM12.7407 20V15.331H14.0007C14.4487 15.331 14.7847 15.4383 15.0087 15.653C15.2327 15.8677 15.3447 16.157 15.3447 16.521C15.3447 16.8197 15.263 17.0507 15.0997 17.214C14.941 17.3727 14.7357 17.4753 14.4837 17.522C14.6983 17.55 14.8897 17.6153 15.0577 17.718C15.2257 17.816 15.354 17.9513 15.4427 18.124C15.5313 18.2967 15.5757 18.488 15.5757 18.698C15.5757 19.0013 15.508 19.2557 15.3727 19.461C15.2373 19.6663 15.067 19.8087 14.8617 19.888C14.661 19.9627 14.4673 20 14.2807 20H12.7407ZM13.2727 19.517H14.2597C14.4837 19.517 14.6633 19.4493 14.7987 19.314C14.9387 19.174 15.0087 18.964 15.0087 18.684C15.0087 18.0913 14.6657 17.795 13.9797 17.795H13.2727V19.517ZM13.2727 17.312H13.9587C14.2247 17.312 14.43 17.2373 14.5747 17.088C14.7193 16.9387 14.7917 16.7427 14.7917 16.5C14.7917 16.0427 14.535 15.814 14.0217 15.814H13.2727V17.312Z" fill="#333333"/>
</svg>
