<svg width="24" height="24" viewBox="0 0 24 24" fill="none" xmlns="http://www.w3.org/2000/svg">
<rect width="24" height="24" fill="white"/>
<path d="M8.98964 12.9655V6.86951L7.56164 7.78152L6.85364 6.61751L9.36164 5.02151H10.5496V12.9655H8.98964ZM17.498 10.4935C17.498 10.8215 17.442 11.1455 17.33 11.4655C17.226 11.7775 17.066 12.0575 16.85 12.3055C16.634 12.5535 16.362 12.7535 16.034 12.9055C15.706 13.0575 15.326 13.1335 14.894 13.1335C14.558 13.1335 14.23 13.0735 13.91 12.9535C13.598 12.8335 13.318 12.6495 13.07 12.4015C12.83 12.1455 12.634 11.8255 12.482 11.4415C12.33 11.0495 12.254 10.5815 12.254 10.0375C12.254 9.66951 12.286 9.28951 12.35 8.89751C12.422 8.49751 12.53 8.10951 12.674 7.73351C12.826 7.35751 13.022 7.00151 13.262 6.66551C13.502 6.32951 13.794 6.03751 14.138 5.78951C14.49 5.53351 14.898 5.33351 15.362 5.18952C15.826 5.03751 16.358 4.96151 16.958 4.96151L17.306 6.16151H17.222C16.654 6.16151 16.186 6.22951 15.818 6.36551C15.458 6.49351 15.162 6.65751 14.93 6.85752C14.706 7.04952 14.534 7.25751 14.414 7.48151C14.294 7.70551 14.202 7.90951 14.138 8.09351C14.29 7.99751 14.454 7.92151 14.63 7.86551C14.814 7.80951 15.018 7.78152 15.242 7.78152C15.586 7.78152 15.898 7.84951 16.178 7.98551C16.458 8.11351 16.694 8.29751 16.886 8.53751C17.086 8.77751 17.238 9.06551 17.342 9.40151C17.446 9.72951 17.498 10.0935 17.498 10.4935ZM15.926 10.5055C15.926 10.0735 15.826 9.73752 15.626 9.49752C15.434 9.24951 15.182 9.12551 14.87 9.12551C14.686 9.12551 14.506 9.15751 14.33 9.22152C14.162 9.27752 14.026 9.33751 13.922 9.40151C13.906 9.44951 13.89 9.54151 13.874 9.67751C13.858 9.81352 13.85 9.98152 13.85 10.1815C13.85 10.4775 13.878 10.7255 13.934 10.9255C13.998 11.1255 14.078 11.2895 14.174 11.4175C14.278 11.5375 14.394 11.6255 14.522 11.6815C14.65 11.7295 14.782 11.7535 14.918 11.7535C15.222 11.7535 15.466 11.6415 15.65 11.4175C15.834 11.1935 15.926 10.8895 15.926 10.5055ZM10.449 20.0565C10.1876 20.0565 9.94263 20.0122 9.71397 19.9235C9.4853 19.8302 9.28463 19.6878 9.11197 19.4965C8.94397 19.3005 8.80863 19.0508 8.70597 18.7475C8.60797 18.4442 8.55897 18.0778 8.55897 17.6485C8.55897 17.0278 8.66163 16.5262 8.86697 16.1435C9.0723 15.7562 9.3103 15.5042 9.58097 15.3875C9.8563 15.2662 10.1106 15.2055 10.344 15.2055C10.5446 15.2055 10.7196 15.2265 10.869 15.2685C11.0183 15.3105 11.1513 15.3688 11.268 15.4435C11.3846 15.5182 11.485 15.6068 11.569 15.7095C11.6576 15.8122 11.737 15.9242 11.807 16.0455L11.415 16.3745C11.2796 16.1692 11.135 16.0058 10.981 15.8845C10.827 15.7632 10.631 15.7025 10.393 15.7025C10.113 15.7025 9.8703 15.7935 9.66497 15.9755C9.45963 16.1528 9.3173 16.3932 9.23797 16.6965C9.15863 16.9952 9.11897 17.3148 9.11897 17.6555C9.11897 17.9588 9.15397 18.2295 9.22397 18.4675C9.29863 18.7055 9.39663 18.9062 9.51797 19.0695C9.6393 19.2328 9.7793 19.3565 9.93797 19.4405C10.1013 19.5245 10.274 19.5665 10.456 19.5665C10.6566 19.5665 10.8293 19.5548 10.974 19.5315C11.1233 19.5035 11.2446 19.4732 11.338 19.4405V18.2225H10.603V17.7325H11.87V19.7905C11.7393 19.8512 11.5456 19.9095 11.289 19.9655C11.037 20.0262 10.757 20.0565 10.449 20.0565ZM12.7406 19.9655V15.2965H14.0006C14.4486 15.2965 14.7846 15.4038 15.0086 15.6185C15.2326 15.8332 15.3446 16.1225 15.3446 16.4865C15.3446 16.7852 15.263 17.0162 15.0996 17.1795C14.941 17.3382 14.7356 17.4408 14.4836 17.4875C14.6983 17.5155 14.8896 17.5808 15.0576 17.6835C15.2256 17.7815 15.354 17.9168 15.4426 18.0895C15.5313 18.2622 15.5756 18.4535 15.5756 18.6635C15.5756 18.9668 15.508 19.2212 15.3726 19.4265C15.2373 19.6318 15.067 19.7742 14.8616 19.8535C14.661 19.9282 14.4673 19.9655 14.2806 19.9655H12.7406ZM13.2726 19.4825H14.2596C14.4836 19.4825 14.6633 19.4148 14.7986 19.2795C14.9386 19.1395 15.0086 18.9295 15.0086 18.6495C15.0086 18.0568 14.6656 17.7605 13.9796 17.7605H13.2726V19.4825ZM13.2726 17.2775H13.9586C14.2246 17.2775 14.43 17.2028 14.5746 17.0535C14.7193 16.9042 14.7916 16.7082 14.7916 16.4655C14.7916 16.0082 14.535 15.7795 14.0216 15.7795H13.2726V17.2775Z" fill="#333333"/>
</svg>
