<svg width="24" height="24" viewBox="0 0 24 24" fill="none" xmlns="http://www.w3.org/2000/svg">
<rect width="24" height="24" fill="white"/>
<path d="M11.8158 12.9655V6.86951L10.3878 7.78152L9.67982 6.61751L12.1878 5.02151H13.3758V12.9655H11.8158ZM10.449 20.0565C10.1876 20.0565 9.94264 20.0122 9.71397 19.9235C9.48531 19.8302 9.28464 19.6878 9.11197 19.4965C8.94397 19.3005 8.80864 19.0508 8.70597 18.7475C8.60797 18.4442 8.55897 18.0778 8.55897 17.6485C8.55897 17.0278 8.66164 16.5262 8.86697 16.1435C9.07231 15.7562 9.31031 15.5042 9.58097 15.3875C9.85631 15.2662 10.1106 15.2055 10.344 15.2055C10.5446 15.2055 10.7196 15.2265 10.869 15.2685C11.0183 15.3105 11.1513 15.3688 11.268 15.4435C11.3846 15.5182 11.485 15.6068 11.569 15.7095C11.6576 15.8122 11.737 15.9242 11.807 16.0455L11.415 16.3745C11.2796 16.1692 11.135 16.0058 10.981 15.8845C10.827 15.7632 10.631 15.7025 10.393 15.7025C10.113 15.7025 9.87031 15.7935 9.66497 15.9755C9.45964 16.1528 9.31731 16.3932 9.23797 16.6965C9.15864 16.9952 9.11897 17.3148 9.11897 17.6555C9.11897 17.9588 9.15397 18.2295 9.22397 18.4675C9.29864 18.7055 9.39664 18.9062 9.51797 19.0695C9.63931 19.2328 9.77931 19.3565 9.93797 19.4405C10.1013 19.5245 10.274 19.5665 10.456 19.5665C10.6566 19.5665 10.8293 19.5548 10.974 19.5315C11.1233 19.5035 11.2446 19.4732 11.338 19.4405V18.2225H10.603V17.7325H11.87V19.7905C11.7393 19.8512 11.5456 19.9095 11.289 19.9655C11.037 20.0262 10.757 20.0565 10.449 20.0565ZM12.7407 19.9655V15.2965H14.0007C14.4487 15.2965 14.7847 15.4038 15.0087 15.6185C15.2327 15.8332 15.3447 16.1225 15.3447 16.4865C15.3447 16.7852 15.263 17.0162 15.0997 17.1795C14.941 17.3382 14.7357 17.4408 14.4837 17.4875C14.6983 17.5155 14.8897 17.5808 15.0577 17.6835C15.2257 17.7815 15.354 17.9168 15.4427 18.0895C15.5313 18.2622 15.5757 18.4535 15.5757 18.6635C15.5757 18.9668 15.508 19.2212 15.3727 19.4265C15.2373 19.6318 15.067 19.7742 14.8617 19.8535C14.661 19.9282 14.4673 19.9655 14.2807 19.9655H12.7407ZM13.2727 19.4825H14.2597C14.4837 19.4825 14.6633 19.4148 14.7987 19.2795C14.9387 19.1395 15.0087 18.9295 15.0087 18.6495C15.0087 18.0568 14.6657 17.7605 13.9797 17.7605H13.2727V19.4825ZM13.2727 17.2775H13.9587C14.2247 17.2775 14.43 17.2028 14.5747 17.0535C14.7193 16.9042 14.7917 16.7082 14.7917 16.4655C14.7917 16.0082 14.535 15.7795 14.0217 15.7795H13.2727V17.2775Z" fill="#333333"/>
</svg>
