<svg width="24" height="24" viewBox="0 0 24 24" fill="none" xmlns="http://www.w3.org/2000/svg">
<rect width="24" height="24" fill="white"/>
<path d="M11.8158 13V6.904L10.3878 7.816L9.67983 6.652L12.1878 5.056H13.3758V13H11.8158ZM9.95209 20V15.814H8.58009V15.331H11.8561V15.814H10.4771V20H9.95209ZM12.4536 20V15.331H13.7136C14.1616 15.331 14.4976 15.4383 14.7216 15.653C14.9456 15.8677 15.0576 16.157 15.0576 16.521C15.0576 16.8197 14.9759 17.0507 14.8126 17.214C14.6539 17.3727 14.4486 17.4753 14.1966 17.522C14.4112 17.55 14.6026 17.6153 14.7706 17.718C14.9386 17.816 15.0669 17.9513 15.1556 18.124C15.2442 18.2967 15.2886 18.488 15.2886 18.698C15.2886 19.0013 15.2209 19.2557 15.0856 19.461C14.9502 19.6663 14.7799 19.8087 14.5746 19.888C14.3739 19.9627 14.1802 20 13.9936 20H12.4536ZM12.9856 19.517H13.9726C14.1966 19.517 14.3762 19.4493 14.5116 19.314C14.6516 19.174 14.7216 18.964 14.7216 18.684C14.7216 18.0913 14.3786 17.795 13.6926 17.795H12.9856V19.517ZM12.9856 17.312H13.6716C13.9376 17.312 14.1429 17.2373 14.2876 17.088C14.4322 16.9387 14.5046 16.7427 14.5046 16.5C14.5046 16.0427 14.2479 15.814 13.7346 15.814H12.9856V17.312Z" fill="#333333"/>
</svg>
