<svg width="24" height="24" viewBox="0 0 24 24" fill="none" xmlns="http://www.w3.org/2000/svg">
<rect width="24" height="24" fill="white"/>
<path d="M3.26348 13V12.052C3.26348 11.892 3.27548 11.728 3.29948 11.56C3.32348 11.392 3.36748 11.224 3.43148 11.056C3.49548 10.888 3.58748 10.724 3.70748 10.564C3.83548 10.396 3.99548 10.24 4.18748 10.096L5.85548 8.812C6.02348 8.684 6.15948 8.564 6.26348 8.452C6.37548 8.34 6.46348 8.232 6.52748 8.128C6.59148 8.016 6.63548 7.904 6.65948 7.792C6.68348 7.672 6.69548 7.54 6.69548 7.396C6.69548 7.06 6.59548 6.8 6.39548 6.616C6.19548 6.424 5.91548 6.328 5.55548 6.328C5.33148 6.328 5.12348 6.368 4.93148 6.448C4.74748 6.52 4.57948 6.608 4.42748 6.712C4.28348 6.808 4.15948 6.908 4.05548 7.012C3.95948 7.108 3.88748 7.18 3.83948 7.228L3.10748 6.076C3.15548 6.02 3.24748 5.928 3.38348 5.8C3.52748 5.672 3.71148 5.544 3.93548 5.416C4.15948 5.28 4.42348 5.164 4.72748 5.068C5.03948 4.964 5.39148 4.912 5.78348 4.912C6.15948 4.912 6.49948 4.968 6.80348 5.08C7.11548 5.192 7.38348 5.352 7.60748 5.56C7.83148 5.768 8.00348 6.02 8.12348 6.316C8.24348 6.604 8.30348 6.928 8.30348 7.288C8.30348 7.808 8.20348 8.248 8.00348 8.608C7.81148 8.96 7.50348 9.292 7.07948 9.604L5.87948 10.492C5.69548 10.628 5.53548 10.748 5.39948 10.852C5.27148 10.948 5.16748 11.04 5.08748 11.128C5.00748 11.208 4.94748 11.288 4.90748 11.368C4.87548 11.44 4.85948 11.52 4.85948 11.608H8.39948V13H3.26348ZM14.5638 10.36C14.5638 10.856 14.4838 11.284 14.3238 11.644C14.1718 11.996 13.9598 12.288 13.6878 12.52C13.4158 12.744 13.0998 12.908 12.7398 13.012C12.3878 13.116 12.0078 13.168 11.5998 13.168C11.3198 13.168 11.0518 13.144 10.7958 13.096C10.5478 13.056 10.3158 13 10.0998 12.928C9.89183 12.848 9.70383 12.764 9.53583 12.676C9.36783 12.58 9.23183 12.484 9.12783 12.388L9.75183 11.056C10.0318 11.272 10.3198 11.448 10.6158 11.584C10.9198 11.712 11.2518 11.776 11.6118 11.776C11.8038 11.776 11.9878 11.752 12.1638 11.704C12.3478 11.656 12.5078 11.58 12.6438 11.476C12.7798 11.364 12.8878 11.224 12.9678 11.056C13.0478 10.88 13.0878 10.664 13.0878 10.408C13.0878 9.92 12.9358 9.564 12.6318 9.34C12.3278 9.116 11.8878 9.004 11.3118 9.004C11.0398 9.004 10.7758 9.028 10.5198 9.076C10.2718 9.116 10.0438 9.16 9.83583 9.208V4.996H14.2758V6.364H11.1918V7.696C11.2078 7.688 11.2558 7.684 11.3358 7.684C11.4158 7.676 11.4838 7.672 11.5398 7.672C12.5078 7.672 13.2518 7.892 13.7718 8.332C14.2998 8.764 14.5638 9.44 14.5638 10.36ZM20.8242 10.528C20.8242 10.856 20.7682 11.18 20.6562 11.5C20.5522 11.812 20.3922 12.092 20.1762 12.34C19.9602 12.588 19.6882 12.788 19.3602 12.94C19.0322 13.092 18.6522 13.168 18.2202 13.168C17.8842 13.168 17.5562 13.108 17.2362 12.988C16.9242 12.868 16.6442 12.684 16.3962 12.436C16.1562 12.18 15.9602 11.86 15.8082 11.476C15.6562 11.084 15.5802 10.616 15.5802 10.072C15.5802 9.704 15.6122 9.324 15.6762 8.932C15.7482 8.532 15.8562 8.144 16.0002 7.768C16.1522 7.392 16.3482 7.036 16.5882 6.7C16.8282 6.364 17.1202 6.072 17.4642 5.824C17.8162 5.568 18.2242 5.368 18.6882 5.224C19.1522 5.072 19.6842 4.996 20.2842 4.996L20.6322 6.196H20.5482C19.9802 6.196 19.5122 6.264 19.1442 6.4C18.7842 6.528 18.4882 6.692 18.2562 6.892C18.0322 7.084 17.8602 7.292 17.7402 7.516C17.6202 7.74 17.5282 7.944 17.4642 8.128C17.6162 8.032 17.7802 7.956 17.9562 7.9C18.1402 7.844 18.3442 7.816 18.5682 7.816C18.9122 7.816 19.2242 7.884 19.5042 8.02C19.7842 8.148 20.0202 8.332 20.2122 8.572C20.4122 8.812 20.5642 9.1 20.6682 9.436C20.7722 9.764 20.8242 10.128 20.8242 10.528ZM19.2522 10.54C19.2522 10.108 19.1522 9.772 18.9522 9.532C18.7602 9.284 18.5082 9.16 18.1962 9.16C18.0122 9.16 17.8322 9.192 17.6562 9.256C17.4882 9.312 17.3522 9.372 17.2482 9.436C17.2322 9.484 17.2162 9.576 17.2002 9.712C17.1842 9.848 17.1762 10.016 17.1762 10.216C17.1762 10.512 17.2042 10.76 17.2602 10.96C17.3242 11.16 17.4042 11.324 17.5002 11.452C17.6042 11.572 17.7202 11.66 17.8482 11.716C17.9762 11.764 18.1082 11.788 18.2442 11.788C18.5482 11.788 18.7922 11.676 18.9762 11.452C19.1602 11.228 19.2522 10.924 19.2522 10.54ZM10.449 20.091C10.1876 20.091 9.94265 20.0467 9.71398 19.958C9.48531 19.8647 9.28465 19.7223 9.11198 19.531C8.94398 19.335 8.80865 19.0853 8.70598 18.782C8.60798 18.4787 8.55898 18.1123 8.55898 17.683C8.55898 17.0623 8.66165 16.5607 8.86698 16.178C9.07231 15.7907 9.31031 15.5387 9.58098 15.422C9.85631 15.3007 10.1106 15.24 10.344 15.24C10.5446 15.24 10.7196 15.261 10.869 15.303C11.0183 15.345 11.1513 15.4033 11.268 15.478C11.3846 15.5527 11.485 15.6413 11.569 15.744C11.6576 15.8467 11.737 15.9587 11.807 16.08L11.415 16.409C11.2796 16.2037 11.135 16.0403 10.981 15.919C10.827 15.7977 10.631 15.737 10.393 15.737C10.113 15.737 9.87031 15.828 9.66498 16.01C9.45965 16.1873 9.31731 16.4277 9.23798 16.731C9.15865 17.0297 9.11898 17.3493 9.11898 17.69C9.11898 17.9933 9.15398 18.264 9.22398 18.502C9.29865 18.74 9.39665 18.9407 9.51798 19.104C9.63931 19.2673 9.77931 19.391 9.93798 19.475C10.1013 19.559 10.274 19.601 10.456 19.601C10.6566 19.601 10.8293 19.5893 10.974 19.566C11.1233 19.538 11.2446 19.5077 11.338 19.475V18.257H10.603V17.767H11.87V19.825C11.7393 19.8857 11.5456 19.944 11.289 20C11.037 20.0607 10.757 20.091 10.449 20.091ZM12.7407 20V15.331H14.0007C14.4487 15.331 14.7847 15.4383 15.0087 15.653C15.2327 15.8677 15.3447 16.157 15.3447 16.521C15.3447 16.8197 15.263 17.0507 15.0997 17.214C14.941 17.3727 14.7357 17.4753 14.4837 17.522C14.6983 17.55 14.8897 17.6153 15.0577 17.718C15.2257 17.816 15.354 17.9513 15.4427 18.124C15.5313 18.2967 15.5757 18.488 15.5757 18.698C15.5757 19.0013 15.508 19.2557 15.3727 19.461C15.2373 19.6663 15.067 19.8087 14.8617 19.888C14.661 19.9627 14.4673 20 14.2807 20H12.7407ZM13.2727 19.517H14.2597C14.4837 19.517 14.6633 19.4493 14.7987 19.314C14.9387 19.174 15.0087 18.964 15.0087 18.684C15.0087 18.0913 14.6657 17.795 13.9797 17.795H13.2727V19.517ZM13.2727 17.312H13.9587C14.2247 17.312 14.43 17.2373 14.5747 17.088C14.7193 16.9387 14.7917 16.7427 14.7917 16.5C14.7917 16.0427 14.535 15.814 14.0217 15.814H13.2727V17.312Z" fill="#333333"/>
</svg>
