<svg width="24" height="24" viewBox="0 0 24 24" fill="none" xmlns="http://www.w3.org/2000/svg">
<rect width="24" height="24" fill="white"/>
<path d="M9.41582 12.9655V12.0175C9.41582 11.8575 9.42782 11.6935 9.45182 11.5255C9.47582 11.3575 9.51982 11.1895 9.58382 11.0215C9.64782 10.8535 9.73982 10.6895 9.85982 10.5295C9.98782 10.3615 10.1478 10.2055 10.3398 10.0615L12.0078 8.77752C12.1758 8.64952 12.3118 8.52952 12.4158 8.41752C12.5278 8.30552 12.6158 8.19752 12.6798 8.09351C12.7438 7.98151 12.7878 7.86951 12.8118 7.75751C12.8358 7.63751 12.8478 7.50551 12.8478 7.36152C12.8478 7.02552 12.7478 6.76552 12.5478 6.58152C12.3478 6.38951 12.0678 6.29351 11.7078 6.29351C11.4838 6.29351 11.2758 6.33351 11.0838 6.41352C10.8998 6.48552 10.7318 6.57351 10.5798 6.67751C10.4358 6.77351 10.3118 6.87351 10.2078 6.97751C10.1118 7.07351 10.0398 7.14551 9.99182 7.19351L9.25982 6.04151C9.30782 5.98551 9.39982 5.89351 9.53582 5.76551C9.67982 5.63751 9.86382 5.50951 10.0878 5.38151C10.3118 5.24551 10.5758 5.12951 10.8798 5.03351C11.1918 4.92951 11.5438 4.87751 11.9358 4.87751C12.3118 4.87751 12.6518 4.93351 12.9558 5.04551C13.2678 5.15751 13.5358 5.31751 13.7598 5.52552C13.9838 5.73351 14.1558 5.98551 14.2758 6.28151C14.3958 6.56951 14.4558 6.89351 14.4558 7.25352C14.4558 7.77351 14.3558 8.21351 14.1558 8.57351C13.9638 8.92551 13.6558 9.25751 13.2318 9.56951L12.0318 10.4575C11.8478 10.5935 11.6878 10.7135 11.5518 10.8175C11.4238 10.9135 11.3198 11.0055 11.2398 11.0935C11.1598 11.1735 11.0998 11.2535 11.0598 11.3335C11.0278 11.4055 11.0118 11.4855 11.0118 11.5735H14.5518V12.9655H9.41582ZM10.449 20.0565C10.1876 20.0565 9.94264 20.0122 9.71397 19.9235C9.48531 19.8302 9.28464 19.6878 9.11197 19.4965C8.94397 19.3005 8.80864 19.0508 8.70597 18.7475C8.60797 18.4442 8.55897 18.0778 8.55897 17.6485C8.55897 17.0278 8.66164 16.5262 8.86697 16.1435C9.07231 15.7562 9.31031 15.5042 9.58097 15.3875C9.85631 15.2662 10.1106 15.2055 10.344 15.2055C10.5446 15.2055 10.7196 15.2265 10.869 15.2685C11.0183 15.3105 11.1513 15.3688 11.268 15.4435C11.3846 15.5182 11.485 15.6068 11.569 15.7095C11.6576 15.8122 11.737 15.9242 11.807 16.0455L11.415 16.3745C11.2796 16.1692 11.135 16.0058 10.981 15.8845C10.827 15.7632 10.631 15.7025 10.393 15.7025C10.113 15.7025 9.87031 15.7935 9.66497 15.9755C9.45964 16.1528 9.31731 16.3932 9.23797 16.6965C9.15864 16.9952 9.11897 17.3148 9.11897 17.6555C9.11897 17.9588 9.15397 18.2295 9.22397 18.4675C9.29864 18.7055 9.39664 18.9062 9.51797 19.0695C9.63931 19.2328 9.77931 19.3565 9.93797 19.4405C10.1013 19.5245 10.274 19.5665 10.456 19.5665C10.6566 19.5665 10.8293 19.5548 10.974 19.5315C11.1233 19.5035 11.2446 19.4732 11.338 19.4405V18.2225H10.603V17.7325H11.87V19.7905C11.7393 19.8512 11.5456 19.9095 11.289 19.9655C11.037 20.0262 10.757 20.0565 10.449 20.0565ZM12.7407 19.9655V15.2965H14.0007C14.4487 15.2965 14.7847 15.4038 15.0087 15.6185C15.2327 15.8332 15.3447 16.1225 15.3447 16.4865C15.3447 16.7852 15.263 17.0162 15.0997 17.1795C14.941 17.3382 14.7357 17.4408 14.4837 17.4875C14.6983 17.5155 14.8897 17.5808 15.0577 17.6835C15.2257 17.7815 15.354 17.9168 15.4427 18.0895C15.5313 18.2622 15.5757 18.4535 15.5757 18.6635C15.5757 18.9668 15.508 19.2212 15.3727 19.4265C15.2373 19.6318 15.067 19.7742 14.8617 19.8535C14.661 19.9282 14.4673 19.9655 14.2807 19.9655H12.7407ZM13.2727 19.4825H14.2597C14.4837 19.4825 14.6633 19.4148 14.7987 19.2795C14.9387 19.1395 15.0087 18.9295 15.0087 18.6495C15.0087 18.0568 14.6657 17.7605 13.9797 17.7605H13.2727V19.4825ZM13.2727 17.2775H13.9587C14.2247 17.2775 14.43 17.2028 14.5747 17.0535C14.7193 16.9042 14.7917 16.7082 14.7917 16.4655C14.7917 16.0082 14.535 15.7795 14.0217 15.7795H13.2727V17.2775Z" fill="#333333"/>
</svg>
