<svg width="24" height="24" viewBox="0 0 24 24" fill="none" xmlns="http://www.w3.org/2000/svg">
<rect width="24" height="24" fill="white"/>
<path d="M6.21964 4.96151H11.2236V6.29351C11.0556 6.40551 10.8796 6.53351 10.6956 6.67751C10.5116 6.81351 10.3316 6.96151 10.1556 7.12151C9.97964 7.27351 9.81564 7.42951 9.66364 7.58951C9.51164 7.74951 9.38764 7.90551 9.29164 8.05752C9.58764 8.05752 9.87564 8.10151 10.1556 8.18951C10.4356 8.26951 10.6796 8.40551 10.8876 8.59751C11.1036 8.78151 11.2756 9.02551 11.4036 9.32952C11.5316 9.62552 11.5956 9.98952 11.5956 10.4215C11.5956 10.8775 11.5156 11.2735 11.3556 11.6095C11.2036 11.9455 10.9956 12.2295 10.7316 12.4615C10.4676 12.6855 10.1596 12.8535 9.80764 12.9655C9.45564 13.0775 9.07964 13.1335 8.67964 13.1335C8.10364 13.1335 7.59564 13.0495 7.15564 12.8815C6.71564 12.7055 6.33964 12.4815 6.02764 12.2095L6.69964 10.9495C6.97964 11.1975 7.27964 11.3975 7.59964 11.5495C7.92764 11.7015 8.27964 11.7775 8.65564 11.7775C8.83964 11.7775 9.01564 11.7575 9.18364 11.7175C9.35164 11.6695 9.49964 11.5935 9.62764 11.4895C9.75564 11.3855 9.85564 11.2535 9.92764 11.0935C10.0076 10.9255 10.0476 10.7255 10.0476 10.4935C10.0476 10.0135 9.89164 9.67352 9.57964 9.47352C9.27564 9.26552 8.86764 9.16152 8.35564 9.16152C8.25164 9.16152 8.13964 9.16552 8.01964 9.17351C7.89964 9.18151 7.78364 9.19351 7.67164 9.20951V8.22552C7.74364 8.09751 7.83564 7.95351 7.94764 7.79351C8.05964 7.62551 8.18764 7.45751 8.33164 7.28951C8.47564 7.12151 8.62764 6.95752 8.78764 6.79752C8.94764 6.62951 9.11164 6.47351 9.27964 6.32951H6.21964V4.96151ZM12.492 12.9655V12.0175C12.492 11.8575 12.504 11.6935 12.528 11.5255C12.552 11.3575 12.596 11.1895 12.66 11.0215C12.724 10.8535 12.816 10.6895 12.936 10.5295C13.064 10.3615 13.224 10.2055 13.416 10.0615L15.084 8.77752C15.252 8.64952 15.388 8.52952 15.492 8.41752C15.604 8.30552 15.692 8.19752 15.756 8.09351C15.82 7.98151 15.864 7.86951 15.888 7.75751C15.912 7.63751 15.924 7.50551 15.924 7.36152C15.924 7.02552 15.824 6.76552 15.624 6.58152C15.424 6.38951 15.144 6.29351 14.784 6.29351C14.56 6.29351 14.352 6.33351 14.16 6.41352C13.976 6.48552 13.808 6.57351 13.656 6.67751C13.512 6.77351 13.388 6.87351 13.284 6.97751C13.188 7.07351 13.116 7.14551 13.068 7.19351L12.336 6.04151C12.384 5.98551 12.476 5.89351 12.612 5.76551C12.756 5.63751 12.94 5.50951 13.164 5.38151C13.388 5.24551 13.652 5.12951 13.956 5.03351C14.268 4.92951 14.62 4.87751 15.012 4.87751C15.388 4.87751 15.728 4.93351 16.032 5.04551C16.344 5.15751 16.612 5.31751 16.836 5.52552C17.06 5.73351 17.232 5.98551 17.352 6.28151C17.472 6.56951 17.532 6.89351 17.532 7.25352C17.532 7.77351 17.432 8.21351 17.232 8.57351C17.04 8.92551 16.732 9.25751 16.308 9.56951L15.108 10.4575C14.924 10.5935 14.764 10.7135 14.628 10.8175C14.5 10.9135 14.396 11.0055 14.316 11.0935C14.236 11.1735 14.176 11.2535 14.136 11.3335C14.104 11.4055 14.088 11.4855 14.088 11.5735H17.628V12.9655H12.492ZM10.449 20.0565C10.1876 20.0565 9.94263 20.0122 9.71397 19.9235C9.4853 19.8302 9.28463 19.6878 9.11197 19.4965C8.94397 19.3005 8.80863 19.0508 8.70597 18.7475C8.60797 18.4442 8.55897 18.0778 8.55897 17.6485C8.55897 17.0278 8.66163 16.5262 8.86697 16.1435C9.0723 15.7562 9.3103 15.5042 9.58097 15.3875C9.8563 15.2662 10.1106 15.2055 10.344 15.2055C10.5446 15.2055 10.7196 15.2265 10.869 15.2685C11.0183 15.3105 11.1513 15.3688 11.268 15.4435C11.3846 15.5182 11.485 15.6068 11.569 15.7095C11.6576 15.8122 11.737 15.9242 11.807 16.0455L11.415 16.3745C11.2796 16.1692 11.135 16.0058 10.981 15.8845C10.827 15.7632 10.631 15.7025 10.393 15.7025C10.113 15.7025 9.8703 15.7935 9.66497 15.9755C9.45963 16.1528 9.3173 16.3932 9.23797 16.6965C9.15863 16.9952 9.11897 17.3148 9.11897 17.6555C9.11897 17.9588 9.15397 18.2295 9.22397 18.4675C9.29863 18.7055 9.39663 18.9062 9.51797 19.0695C9.6393 19.2328 9.7793 19.3565 9.93797 19.4405C10.1013 19.5245 10.274 19.5665 10.456 19.5665C10.6566 19.5665 10.8293 19.5548 10.974 19.5315C11.1233 19.5035 11.2446 19.4732 11.338 19.4405V18.2225H10.603V17.7325H11.87V19.7905C11.7393 19.8512 11.5456 19.9095 11.289 19.9655C11.037 20.0262 10.757 20.0565 10.449 20.0565ZM12.7406 19.9655V15.2965H14.0006C14.4486 15.2965 14.7846 15.4038 15.0086 15.6185C15.2326 15.8332 15.3446 16.1225 15.3446 16.4865C15.3446 16.7852 15.263 17.0162 15.0996 17.1795C14.941 17.3382 14.7356 17.4408 14.4836 17.4875C14.6983 17.5155 14.8896 17.5808 15.0576 17.6835C15.2256 17.7815 15.354 17.9168 15.4426 18.0895C15.5313 18.2622 15.5756 18.4535 15.5756 18.6635C15.5756 18.9668 15.508 19.2212 15.3726 19.4265C15.2373 19.6318 15.067 19.7742 14.8616 19.8535C14.661 19.9282 14.4673 19.9655 14.2806 19.9655H12.7406ZM13.2726 19.4825H14.2596C14.4836 19.4825 14.6633 19.4148 14.7986 19.2795C14.9386 19.1395 15.0086 18.9295 15.0086 18.6495C15.0086 18.0568 14.6656 17.7605 13.9796 17.7605H13.2726V19.4825ZM13.2726 17.2775H13.9586C14.2246 17.2775 14.43 17.2028 14.5746 17.0535C14.7193 16.9042 14.7916 16.7082 14.7916 16.4655C14.7916 16.0082 14.535 15.7795 14.0216 15.7795H13.2726V17.2775Z" fill="#333333"/>
</svg>
