<svg width="24" height="24" viewBox="0 0 24 24" fill="none" xmlns="http://www.w3.org/2000/svg">
<rect width="24" height="24" fill="white"/>
<path d="M9.25148 10.36C9.25148 10.856 9.17148 11.284 9.01148 11.644C8.85948 11.996 8.64748 12.288 8.37548 12.52C8.10348 12.744 7.78748 12.908 7.42748 13.012C7.07548 13.116 6.69548 13.168 6.28748 13.168C6.00748 13.168 5.73948 13.144 5.48348 13.096C5.23548 13.056 5.00348 13 4.78748 12.928C4.57948 12.848 4.39148 12.764 4.22348 12.676C4.05548 12.58 3.91948 12.484 3.81548 12.388L4.43948 11.056C4.71948 11.272 5.00748 11.448 5.30348 11.584C5.60748 11.712 5.93948 11.776 6.29948 11.776C6.49148 11.776 6.67548 11.752 6.85148 11.704C7.03548 11.656 7.19548 11.58 7.33148 11.476C7.46748 11.364 7.57548 11.224 7.65548 11.056C7.73548 10.88 7.77548 10.664 7.77548 10.408C7.77548 9.92 7.62348 9.564 7.31948 9.34C7.01548 9.116 6.57548 9.004 5.99948 9.004C5.72748 9.004 5.46348 9.028 5.20748 9.076C4.95948 9.116 4.73148 9.16 4.52348 9.208V4.996H8.96348V6.364H5.87948V7.696C5.89548 7.688 5.94348 7.684 6.02348 7.684C6.10348 7.676 6.17148 7.672 6.22748 7.672C7.19548 7.672 7.93948 7.892 8.45948 8.332C8.98748 8.764 9.25148 9.44 9.25148 10.36ZM11.8158 13V6.904L10.3878 7.816L9.67983 6.652L12.1878 5.056H13.3758V13H11.8158ZM14.7282 13V12.052C14.7282 11.892 14.7402 11.728 14.7642 11.56C14.7882 11.392 14.8322 11.224 14.8962 11.056C14.9602 10.888 15.0522 10.724 15.1722 10.564C15.3002 10.396 15.4602 10.24 15.6522 10.096L17.3202 8.812C17.4882 8.684 17.6242 8.564 17.7282 8.452C17.8402 8.34 17.9282 8.232 17.9922 8.128C18.0562 8.016 18.1002 7.904 18.1242 7.792C18.1482 7.672 18.1602 7.54 18.1602 7.396C18.1602 7.06 18.0602 6.8 17.8602 6.616C17.6602 6.424 17.3802 6.328 17.0202 6.328C16.7962 6.328 16.5882 6.368 16.3962 6.448C16.2122 6.52 16.0442 6.608 15.8922 6.712C15.7482 6.808 15.6242 6.908 15.5202 7.012C15.4242 7.108 15.3522 7.18 15.3042 7.228L14.5722 6.076C14.6202 6.02 14.7122 5.928 14.8482 5.8C14.9922 5.672 15.1762 5.544 15.4002 5.416C15.6242 5.28 15.8882 5.164 16.1922 5.068C16.5042 4.964 16.8562 4.912 17.2482 4.912C17.6242 4.912 17.9642 4.968 18.2682 5.08C18.5802 5.192 18.8482 5.352 19.0722 5.56C19.2962 5.768 19.4682 6.02 19.5882 6.316C19.7082 6.604 19.7682 6.928 19.7682 7.288C19.7682 7.808 19.6682 8.248 19.4682 8.608C19.2762 8.96 18.9682 9.292 18.5442 9.604L17.3442 10.492C17.1602 10.628 17.0002 10.748 16.8642 10.852C16.7362 10.948 16.6322 11.04 16.5522 11.128C16.4722 11.208 16.4122 11.288 16.3722 11.368C16.3402 11.44 16.3242 11.52 16.3242 11.608H19.8642V13H14.7282ZM10.449 20.091C10.1876 20.091 9.94265 20.0467 9.71398 19.958C9.48531 19.8647 9.28465 19.7223 9.11198 19.531C8.94398 19.335 8.80865 19.0853 8.70598 18.782C8.60798 18.4787 8.55898 18.1123 8.55898 17.683C8.55898 17.0623 8.66165 16.5607 8.86698 16.178C9.07231 15.7907 9.31031 15.5387 9.58098 15.422C9.85631 15.3007 10.1106 15.24 10.344 15.24C10.5446 15.24 10.7196 15.261 10.869 15.303C11.0183 15.345 11.1513 15.4033 11.268 15.478C11.3846 15.5527 11.485 15.6413 11.569 15.744C11.6576 15.8467 11.737 15.9587 11.807 16.08L11.415 16.409C11.2796 16.2037 11.135 16.0403 10.981 15.919C10.827 15.7977 10.631 15.737 10.393 15.737C10.113 15.737 9.87031 15.828 9.66498 16.01C9.45965 16.1873 9.31731 16.4277 9.23798 16.731C9.15865 17.0297 9.11898 17.3493 9.11898 17.69C9.11898 17.9933 9.15398 18.264 9.22398 18.502C9.29865 18.74 9.39665 18.9407 9.51798 19.104C9.63931 19.2673 9.77931 19.391 9.93798 19.475C10.1013 19.559 10.274 19.601 10.456 19.601C10.6566 19.601 10.8293 19.5893 10.974 19.566C11.1233 19.538 11.2446 19.5077 11.338 19.475V18.257H10.603V17.767H11.87V19.825C11.7393 19.8857 11.5456 19.944 11.289 20C11.037 20.0607 10.757 20.091 10.449 20.091ZM12.7407 20V15.331H14.0007C14.4487 15.331 14.7847 15.4383 15.0087 15.653C15.2327 15.8677 15.3447 16.157 15.3447 16.521C15.3447 16.8197 15.263 17.0507 15.0997 17.214C14.941 17.3727 14.7357 17.4753 14.4837 17.522C14.6983 17.55 14.8897 17.6153 15.0577 17.718C15.2257 17.816 15.354 17.9513 15.4427 18.124C15.5313 18.2967 15.5757 18.488 15.5757 18.698C15.5757 19.0013 15.508 19.2557 15.3727 19.461C15.2373 19.6663 15.067 19.8087 14.8617 19.888C14.661 19.9627 14.4673 20 14.2807 20H12.7407ZM13.2727 19.517H14.2597C14.4837 19.517 14.6633 19.4493 14.7987 19.314C14.9387 19.174 15.0087 18.964 15.0087 18.684C15.0087 18.0913 14.6657 17.795 13.9797 17.795H13.2727V19.517ZM13.2727 17.312H13.9587C14.2247 17.312 14.43 17.2373 14.5747 17.088C14.7193 16.9387 14.7917 16.7427 14.7917 16.5C14.7917 16.0427 14.535 15.814 14.0217 15.814H13.2727V17.312Z" fill="#333333"/>
</svg>
