<svg width="24" height="24" viewBox="0 0 24 24" fill="none" xmlns="http://www.w3.org/2000/svg">
<rect width="24" height="24" fill="white"/>
<path d="M11.5956 10.4935C11.5956 10.8215 11.5396 11.1455 11.4276 11.4655C11.3236 11.7775 11.1636 12.0575 10.9476 12.3055C10.7316 12.5535 10.4596 12.7535 10.1316 12.9055C9.80365 13.0575 9.42365 13.1335 8.99165 13.1335C8.65565 13.1335 8.32765 13.0735 8.00765 12.9535C7.69565 12.8335 7.41565 12.6495 7.16765 12.4015C6.92765 12.1455 6.73165 11.8255 6.57965 11.4415C6.42765 11.0495 6.35165 10.5815 6.35165 10.0375C6.35165 9.66951 6.38365 9.28951 6.44765 8.89751C6.51965 8.49751 6.62765 8.10951 6.77165 7.73351C6.92365 7.35751 7.11965 7.00151 7.35965 6.66551C7.59965 6.32951 7.89165 6.03751 8.23565 5.78951C8.58765 5.53351 8.99565 5.33351 9.45965 5.18952C9.92365 5.03751 10.4556 4.96151 11.0556 4.96151L11.4036 6.16151H11.3196C10.7516 6.16151 10.2836 6.22951 9.91565 6.36551C9.55565 6.49351 9.25965 6.65751 9.02765 6.85752C8.80365 7.04952 8.63165 7.25751 8.51165 7.48151C8.39165 7.70551 8.29965 7.90951 8.23565 8.09351C8.38765 7.99751 8.55165 7.92151 8.72765 7.86551C8.91165 7.80951 9.11565 7.78152 9.33965 7.78152C9.68365 7.78152 9.99565 7.84951 10.2756 7.98551C10.5556 8.11351 10.7916 8.29751 10.9836 8.53751C11.1836 8.77751 11.3356 9.06551 11.4396 9.40151C11.5436 9.72951 11.5956 10.0935 11.5956 10.4935ZM10.0236 10.5055C10.0236 10.0735 9.92365 9.73752 9.72365 9.49752C9.53165 9.24951 9.27965 9.12551 8.96765 9.12551C8.78365 9.12551 8.60365 9.15751 8.42765 9.22152C8.25965 9.27752 8.12365 9.33751 8.01965 9.40151C8.00365 9.44951 7.98765 9.54151 7.97165 9.67751C7.95565 9.81352 7.94765 9.98152 7.94765 10.1815C7.94765 10.4775 7.97565 10.7255 8.03165 10.9255C8.09565 11.1255 8.17565 11.2895 8.27165 11.4175C8.37565 11.5375 8.49165 11.6255 8.61965 11.6815C8.74765 11.7295 8.87965 11.7535 9.01565 11.7535C9.31965 11.7535 9.56365 11.6415 9.74765 11.4175C9.93165 11.1935 10.0236 10.8895 10.0236 10.5055ZM15.636 12.9655V11.4055H12.312V10.2175L15.9 4.96151H17.136V10.0255H17.916V11.4055H17.136V12.9655H15.636ZM13.944 10.0255H15.636V7.45751L13.944 10.0255ZM10.449 20.0565C10.1876 20.0565 9.94264 20.0122 9.71397 19.9235C9.4853 19.8302 9.28464 19.6878 9.11197 19.4965C8.94397 19.3005 8.80864 19.0508 8.70597 18.7475C8.60797 18.4442 8.55897 18.0778 8.55897 17.6485C8.55897 17.0278 8.66164 16.5262 8.86697 16.1435C9.0723 15.7562 9.3103 15.5042 9.58097 15.3875C9.8563 15.2662 10.1106 15.2055 10.344 15.2055C10.5446 15.2055 10.7196 15.2265 10.869 15.2685C11.0183 15.3105 11.1513 15.3688 11.268 15.4435C11.3846 15.5182 11.485 15.6068 11.569 15.7095C11.6576 15.8122 11.737 15.9242 11.807 16.0455L11.415 16.3745C11.2796 16.1692 11.135 16.0058 10.981 15.8845C10.827 15.7632 10.631 15.7025 10.393 15.7025C10.113 15.7025 9.8703 15.7935 9.66497 15.9755C9.45964 16.1528 9.3173 16.3932 9.23797 16.6965C9.15864 16.9952 9.11897 17.3148 9.11897 17.6555C9.11897 17.9588 9.15397 18.2295 9.22397 18.4675C9.29864 18.7055 9.39664 18.9062 9.51797 19.0695C9.6393 19.2328 9.7793 19.3565 9.93797 19.4405C10.1013 19.5245 10.274 19.5665 10.456 19.5665C10.6566 19.5665 10.8293 19.5548 10.974 19.5315C11.1233 19.5035 11.2446 19.4732 11.338 19.4405V18.2225H10.603V17.7325H11.87V19.7905C11.7393 19.8512 11.5456 19.9095 11.289 19.9655C11.037 20.0262 10.757 20.0565 10.449 20.0565ZM12.7406 19.9655V15.2965H14.0006C14.4486 15.2965 14.7846 15.4038 15.0086 15.6185C15.2326 15.8332 15.3446 16.1225 15.3446 16.4865C15.3446 16.7852 15.263 17.0162 15.0996 17.1795C14.941 17.3382 14.7356 17.4408 14.4836 17.4875C14.6983 17.5155 14.8896 17.5808 15.0576 17.6835C15.2256 17.7815 15.354 17.9168 15.4426 18.0895C15.5313 18.2622 15.5756 18.4535 15.5756 18.6635C15.5756 18.9668 15.508 19.2212 15.3726 19.4265C15.2373 19.6318 15.067 19.7742 14.8616 19.8535C14.661 19.9282 14.4673 19.9655 14.2806 19.9655H12.7406ZM13.2726 19.4825H14.2596C14.4836 19.4825 14.6633 19.4148 14.7986 19.2795C14.9386 19.1395 15.0086 18.9295 15.0086 18.6495C15.0086 18.0568 14.6656 17.7605 13.9796 17.7605H13.2726V19.4825ZM13.2726 17.2775H13.9586C14.2246 17.2775 14.43 17.2028 14.5746 17.0535C14.7193 16.9042 14.7916 16.7082 14.7916 16.4655C14.7916 16.0082 14.535 15.7795 14.0216 15.7795H13.2726V17.2775Z" fill="#333333"/>
</svg>
