<svg width="24" height="24" viewBox="0 0 24 24" fill="none" xmlns="http://www.w3.org/2000/svg">
<rect width="24" height="24" fill="white"/>
<path d="M14.6118 10.7095C14.6118 11.0135 14.5518 11.3095 14.4318 11.5975C14.3198 11.8855 14.1518 12.1455 13.9278 12.3775C13.7118 12.6015 13.4398 12.7855 13.1118 12.9295C12.7918 13.0655 12.4238 13.1335 12.0078 13.1335C11.5918 13.1335 11.2198 13.0655 10.8918 12.9295C10.5718 12.7935 10.2998 12.6135 10.0758 12.3895C9.85182 12.1575 9.67982 11.8975 9.55982 11.6095C9.44782 11.3215 9.39182 11.0255 9.39182 10.7215C9.39182 10.5535 9.41182 10.3815 9.45182 10.2055C9.49982 10.0295 9.56382 9.85752 9.64382 9.68952C9.73182 9.52152 9.83582 9.36552 9.95582 9.22152C10.0758 9.07752 10.2158 8.95752 10.3758 8.86152C10.0718 8.62951 9.85182 8.36151 9.71582 8.05752C9.57982 7.74551 9.51182 7.44551 9.51182 7.15751C9.51182 6.86151 9.56782 6.57751 9.67982 6.30552C9.79982 6.03351 9.96782 5.79351 10.1838 5.58552C10.3998 5.36951 10.6598 5.19751 10.9638 5.06951C11.2758 4.94151 11.6238 4.87751 12.0078 4.87751C12.3838 4.87751 12.7238 4.94151 13.0278 5.06951C13.3398 5.18951 13.6038 5.35351 13.8198 5.56151C14.0358 5.76951 14.2038 6.00951 14.3238 6.28151C14.4438 6.55351 14.5038 6.83751 14.5038 7.13351C14.5038 7.42151 14.4318 7.72951 14.2878 8.05752C14.1438 8.37751 13.9278 8.64151 13.6398 8.84951C13.9678 9.04951 14.2118 9.32551 14.3718 9.67751C14.5318 10.0295 14.6118 10.3735 14.6118 10.7095ZM12.9798 7.18151C12.9798 7.06151 12.9558 6.94151 12.9078 6.82151C12.8678 6.70151 12.8038 6.59351 12.7158 6.49751C12.6358 6.40152 12.5358 6.32552 12.4158 6.26951C12.2958 6.20551 12.1598 6.17351 12.0078 6.17351C11.8558 6.17351 11.7198 6.20551 11.5998 6.26951C11.4798 6.32552 11.3758 6.40152 11.2878 6.49751C11.2078 6.59351 11.1438 6.70551 11.0958 6.83351C11.0558 6.95351 11.0358 7.07351 11.0358 7.19351C11.0358 7.32151 11.0558 7.44951 11.0958 7.57751C11.1358 7.70551 11.1958 7.82151 11.2758 7.92551C11.3638 8.02952 11.4678 8.11352 11.5878 8.17751C11.7078 8.24151 11.8478 8.27351 12.0078 8.27351C12.1598 8.27351 12.2958 8.24151 12.4158 8.17751C12.5358 8.10551 12.6358 8.01751 12.7158 7.91351C12.8038 7.80951 12.8678 7.69351 12.9078 7.56551C12.9558 7.43751 12.9798 7.30951 12.9798 7.18151ZM13.1118 10.6495C13.1118 10.3455 13.0118 10.0815 12.8118 9.85752C12.6198 9.63352 12.3478 9.52152 11.9958 9.52152C11.6518 9.52152 11.3838 9.63352 11.1918 9.85752C10.9998 10.0735 10.9038 10.3295 10.9038 10.6255C10.9038 10.7775 10.9278 10.9215 10.9758 11.0575C11.0238 11.1935 11.0958 11.3175 11.1918 11.4295C11.2878 11.5335 11.4038 11.6175 11.5398 11.6815C11.6758 11.7455 11.8318 11.7775 12.0078 11.7775C12.3678 11.7775 12.6398 11.6655 12.8238 11.4415C13.0158 11.2175 13.1118 10.9535 13.1118 10.6495ZM10.449 20.0565C10.1876 20.0565 9.94264 20.0122 9.71397 19.9235C9.48531 19.8302 9.28464 19.6878 9.11197 19.4965C8.94397 19.3005 8.80864 19.0508 8.70597 18.7475C8.60797 18.4442 8.55897 18.0778 8.55897 17.6485C8.55897 17.0278 8.66164 16.5262 8.86697 16.1435C9.07231 15.7562 9.31031 15.5042 9.58097 15.3875C9.85631 15.2662 10.1106 15.2055 10.344 15.2055C10.5446 15.2055 10.7196 15.2265 10.869 15.2685C11.0183 15.3105 11.1513 15.3688 11.268 15.4435C11.3846 15.5182 11.485 15.6068 11.569 15.7095C11.6576 15.8122 11.737 15.9242 11.807 16.0455L11.415 16.3745C11.2796 16.1692 11.135 16.0058 10.981 15.8845C10.827 15.7632 10.631 15.7025 10.393 15.7025C10.113 15.7025 9.87031 15.7935 9.66497 15.9755C9.45964 16.1528 9.31731 16.3932 9.23797 16.6965C9.15864 16.9952 9.11897 17.3148 9.11897 17.6555C9.11897 17.9588 9.15397 18.2295 9.22397 18.4675C9.29864 18.7055 9.39664 18.9062 9.51797 19.0695C9.63931 19.2328 9.77931 19.3565 9.93797 19.4405C10.1013 19.5245 10.274 19.5665 10.456 19.5665C10.6566 19.5665 10.8293 19.5548 10.974 19.5315C11.1233 19.5035 11.2446 19.4732 11.338 19.4405V18.2225H10.603V17.7325H11.87V19.7905C11.7393 19.8512 11.5456 19.9095 11.289 19.9655C11.037 20.0262 10.757 20.0565 10.449 20.0565ZM12.7407 19.9655V15.2965H14.0007C14.4487 15.2965 14.7847 15.4038 15.0087 15.6185C15.2327 15.8332 15.3447 16.1225 15.3447 16.4865C15.3447 16.7852 15.263 17.0162 15.0997 17.1795C14.941 17.3382 14.7357 17.4408 14.4837 17.4875C14.6983 17.5155 14.8897 17.5808 15.0577 17.6835C15.2257 17.7815 15.354 17.9168 15.4427 18.0895C15.5313 18.2622 15.5757 18.4535 15.5757 18.6635C15.5757 18.9668 15.508 19.2212 15.3727 19.4265C15.2373 19.6318 15.067 19.7742 14.8617 19.8535C14.661 19.9282 14.4673 19.9655 14.2807 19.9655H12.7407ZM13.2727 19.4825H14.2597C14.4837 19.4825 14.6633 19.4148 14.7987 19.2795C14.9387 19.1395 15.0087 18.9295 15.0087 18.6495C15.0087 18.0568 14.6657 17.7605 13.9797 17.7605H13.2727V19.4825ZM13.2727 17.2775H13.9587C14.2247 17.2775 14.43 17.2028 14.5747 17.0535C14.7193 16.9042 14.7917 16.7082 14.7917 16.4655C14.7917 16.0082 14.535 15.7795 14.0217 15.7795H13.2727V17.2775Z" fill="#333333"/>
</svg>
